<?xml version="1.0" encoding="UTF-8"?>
<svg id="Layer_1" data-name="Layer 1" xmlns="http://www.w3.org/2000/svg" viewBox="0 0 322.17 76.58">
  <defs>
    <style>
      .cls-1 {
        fill: #fff;
      }
    </style>
  </defs>
  <path class="cls-1" d="M29.26,31.32h-.06c-2.59,0-5.04,.5-7.36,1.5-2.32,1-4.34,2.36-6.06,4.09-1.73,1.73-3.1,3.76-4.12,6.09-1.02,2.34-1.53,4.84-1.53,7.51v20.31c0,1.45-.47,2.66-1.41,3.62-.94,.96-2.1,1.44-3.47,1.44-1.45,0-2.69-.48-3.71-1.44-1.02-.96-1.53-2.17-1.53-3.62v-20.31c0-4.04,.77-7.84,2.3-11.39,1.53-3.55,3.62-6.66,6.27-9.33,2.65-2.67,5.75-4.78,9.3-6.33,3.55-1.55,7.33-2.33,11.33-2.33h.29c1.69,0,2.99,.48,3.91,1.44,.92,.96,1.38,2.17,1.38,3.62s-.51,2.67-1.53,3.65c-1.02,.98-2.28,1.47-3.77,1.47h-.24Z"/>
  <path class="cls-1" d="M43.21,8.54c0-1.65,.56-3.02,1.68-4.12,1.12-1.1,2.48-1.65,4.09-1.65s3.03,.55,4.15,1.65c1.12,1.1,1.68,2.47,1.68,4.12,0,.79-.15,1.52-.44,2.21-.29,.69-.71,1.3-1.24,1.83s-1.15,.95-1.85,1.27c-.71,.31-1.47,.47-2.3,.47s-1.53-.16-2.24-.47c-.71-.31-1.32-.74-1.85-1.27s-.94-1.14-1.24-1.83c-.29-.69-.44-1.42-.44-2.21Zm10.89,62.28c0,.71-.13,1.36-.38,1.97-.26,.61-.62,1.14-1.09,1.59-.47,.45-1.01,.81-1.62,1.09-.61,.27-1.27,.41-1.97,.41s-1.36-.14-1.97-.41c-.61-.27-1.15-.64-1.62-1.09-.47-.45-.84-.98-1.12-1.59-.27-.61-.41-1.27-.41-1.97V26.25c0-1.41,.51-2.62,1.53-3.62,1.02-1,2.24-1.5,3.65-1.5s2.65,.5,3.59,1.5c.94,1,1.41,2.21,1.41,3.62v44.56Z"/>
  <path class="cls-1" d="M74.46,48.33l-.12,.12s.02,.08,.06,.12c0,.04,.02,.06,.06,.06,0,2.24,.44,4.41,1.32,6.5,.88,2.1,2.1,3.98,3.65,5.65,1.55,1.67,3.36,3.01,5.44,4.03,2.08,1.02,4.34,1.55,6.77,1.59,2.24,.04,4.35-.28,6.33-.97,1.98-.69,3.91-1.83,5.8-3.44,.51-.39,1.06-.78,1.65-1.18,.59-.39,1.23-.67,1.91-.82,.69-.16,1.4-.15,2.15,.03,.74,.18,1.53,.62,2.35,1.32,1.1,.98,1.64,2.21,1.62,3.68-.02,1.47-.64,2.82-1.85,4.03-2.35,2.43-5.21,4.3-8.56,5.59-3.36,1.3-6.86,1.94-10.51,1.94-3.88,0-7.53-.72-10.95-2.15-3.41-1.43-6.41-3.4-8.98-5.92-2.57-2.51-4.59-5.45-6.06-8.83-1.47-3.37-2.21-7-2.21-10.89l.12-.24-.12-.12c0-3.89,.74-7.53,2.21-10.95,1.47-3.41,3.49-6.39,6.06-8.92,2.57-2.53,5.56-4.52,8.98-5.97,3.41-1.45,7.06-2.18,10.95-2.18s7.2,.62,10.54,1.85c3.33,1.24,6.18,3.07,8.54,5.5,1.22,1.22,1.84,2.57,1.88,4.06,.04,1.49-.51,2.73-1.65,3.71-.82,.71-1.61,1.15-2.35,1.32-.75,.18-1.46,.19-2.15,.03-.69-.16-1.32-.43-1.91-.82-.59-.39-1.14-.8-1.65-1.24-1.85-1.57-3.77-2.69-5.77-3.35-2-.67-4.12-.96-6.36-.88-2.39,.04-4.63,.56-6.71,1.56-2.08,1-3.9,2.33-5.45,3.97-1.55,1.65-2.78,3.53-3.68,5.65-.9,2.12-1.35,4.3-1.35,6.53Z"/>
  <path class="cls-1" d="M120.26,48.5c0-3.88,.74-7.53,2.21-10.95s3.48-6.39,6.03-8.92c2.55-2.53,5.53-4.53,8.95-6,3.41-1.47,7.04-2.21,10.89-2.21s7.46,.73,10.83,2.18c3.37,1.45,6.33,3.43,8.86,5.95,2.53,2.51,4.54,5.46,6.03,8.83,1.49,3.38,2.26,6.99,2.3,10.83v22.43c0,1.45-.5,2.69-1.5,3.71-1,1.02-2.25,1.53-3.74,1.53s-2.64-.51-3.56-1.53c-.92-1.02-1.38-2.26-1.38-3.71l-.06-1.24c-2.43,2.16-5.15,3.9-8.15,5.21-3,1.31-6.21,1.97-9.62,1.97-3.85,0-7.48-.74-10.89-2.21-3.41-1.47-6.4-3.48-8.95-6.03-2.55-2.55-4.56-5.52-6.03-8.92-1.47-3.39-2.21-7.03-2.21-10.92Zm10.12,0c0,2.43,.47,4.74,1.41,6.92,.94,2.18,2.22,4.08,3.83,5.71,1.61,1.63,3.51,2.92,5.71,3.88,2.2,.96,4.53,1.44,7,1.44s4.85-.48,7-1.44c2.16-.96,4.04-2.26,5.65-3.88,1.61-1.63,2.87-3.53,3.8-5.71,.92-2.18,1.38-4.48,1.38-6.92s-.46-4.8-1.38-6.98c-.92-2.18-2.19-4.07-3.8-5.68-1.61-1.61-3.49-2.88-5.65-3.83-2.16-.94-4.49-1.41-7-1.41s-4.8,.47-6.98,1.41c-2.18,.94-4.08,2.22-5.71,3.83-1.63,1.61-2.91,3.5-3.86,5.68-.94,2.18-1.41,4.5-1.41,6.98Z"/>
  <path class="cls-1" d="M202.14,51.57c-1.73-.67-3.49-1.41-5.3-2.24-1.81-.82-3.44-1.83-4.92-3.03-1.47-1.2-2.67-2.63-3.59-4.3-.92-1.67-1.38-3.66-1.38-5.98,0-2.47,.5-4.67,1.5-6.59,1-1.92,2.35-3.55,4.06-4.89,1.71-1.33,3.71-2.35,6-3.06s4.76-1.06,7.39-1.06c1.69,0,3.38,.14,5.09,.41,1.71,.27,3.33,.72,4.86,1.32,1.53,.61,2.9,1.38,4.12,2.33,1.22,.94,2.18,2.08,2.88,3.41,.47,1.02,.64,2.02,.5,3-.14,.98-.5,1.79-1.09,2.41-.63,.67-1.39,1.14-2.3,1.41-.9,.27-1.81,.2-2.71-.24-1.65-1.45-3.26-2.53-4.83-3.24-1.57-.71-3.49-1.06-5.77-1.06-1.37,0-2.64,.11-3.8,.32-1.16,.22-2.16,.57-3,1.06-.84,.49-1.51,1.11-2,1.85-.49,.75-.74,1.65-.74,2.71s.27,1.87,.82,2.56c.55,.69,1.29,1.29,2.24,1.8,.94,.51,2.06,.97,3.36,1.38,1.29,.41,2.69,.85,4.18,1.32,2.39,.75,4.69,1.58,6.89,2.5,2.2,.92,4.12,2.03,5.77,3.33,1.65,1.3,2.96,2.85,3.94,4.65,.98,1.81,1.47,3.94,1.47,6.42,0,2.32-.5,4.48-1.5,6.5-1,2.02-2.38,3.77-4.12,5.24s-3.82,2.63-6.21,3.47c-2.39,.84-4.96,1.27-7.71,1.27-1.92,0-3.88-.18-5.89-.53-2-.35-3.91-.93-5.71-1.74-1.81-.8-3.46-1.83-4.97-3.09-1.51-1.26-2.72-2.77-3.62-4.53-.79-1.49-1.02-2.83-.71-4.03,.31-1.2,.93-2.09,1.85-2.68,.92-.59,2.05-.79,3.38-.62,1.33,.18,2.65,.85,3.94,2.03,1.06,1.57,2.62,2.87,4.68,3.89,2.06,1.02,4.39,1.53,6.98,1.53,1.22,0,2.39-.16,3.53-.47,1.14-.31,2.15-.77,3.03-1.35,.88-.59,1.58-1.28,2.09-2.09,.51-.8,.77-1.72,.77-2.74s-.44-2.03-1.33-2.91c-.88-.88-1.99-1.67-3.33-2.35-1.33-.69-2.8-1.3-4.39-1.85-1.59-.55-3.07-1.04-4.44-1.47Z"/>
  <path class="cls-1" d="M232.75,48.5c0-3.88,.74-7.53,2.21-10.95s3.48-6.39,6.03-8.92c2.55-2.53,5.53-4.53,8.95-6s7.04-2.21,10.89-2.21,7.52,.74,10.92,2.21,6.36,3.47,8.89,6c2.53,2.53,4.53,5.5,6,8.92s2.21,7.06,2.21,10.95-.74,7.53-2.21,10.92c-1.47,3.39-3.47,6.37-6,8.92-2.53,2.55-5.49,4.56-8.89,6.03s-7.03,2.21-10.92,2.21-7.48-.74-10.89-2.21-6.4-3.48-8.95-6.03c-2.55-2.55-4.56-5.52-6.03-8.92-1.47-3.39-2.21-7.03-2.21-10.92Zm10.12,0c0,2.43,.47,4.74,1.41,6.92,.94,2.18,2.22,4.08,3.83,5.71,1.61,1.63,3.51,2.92,5.71,3.88,2.2,.96,4.53,1.44,7.01,1.44s4.85-.48,7-1.44c2.16-.96,4.04-2.26,5.65-3.88,1.61-1.63,2.88-3.53,3.8-5.71,.92-2.18,1.38-4.48,1.38-6.92s-.46-4.8-1.38-6.98c-.92-2.18-2.19-4.07-3.8-5.68-1.61-1.61-3.49-2.88-5.65-3.83-2.16-.94-4.49-1.41-7-1.41s-4.8,.47-6.98,1.41c-2.18,.94-4.08,2.22-5.71,3.83-1.63,1.61-2.91,3.5-3.86,5.68-.94,2.18-1.41,4.5-1.41,6.98Z"/>
  <path class="cls-1" d="M317.16,65.69c1.45,0,2.65,.52,3.59,1.56,.94,1.04,1.41,2.27,1.41,3.68s-.47,2.59-1.41,3.53c-.94,.94-2.14,1.41-3.59,1.41h-.24c-2.67,0-5.16-.47-7.48-1.41-2.32-.94-4.32-2.25-6-3.91-1.69-1.67-3.01-3.68-3.97-6.03-.96-2.35-1.44-4.96-1.44-7.83V5.12c0-1.45,.47-2.67,1.41-3.65,.94-.98,2.1-1.47,3.47-1.47s2.64,.49,3.68,1.47c1.04,.98,1.56,2.2,1.56,3.65V56.69c.04,2.9,.87,5.13,2.5,6.68,1.63,1.55,3.8,2.33,6.5,2.33Z"/>
</svg>